<svg width="10" height="12" viewBox="0 0 10 12" fill="none" xmlns="http://www.w3.org/2000/svg">
<path d="M2.19304 11.6351H8.16854C8.85119 11.6351 9.40656 10.898 9.40656 9.99202V2.06162C9.40656 1.15564 8.85119 0.418579 8.16854 0.418579H2.19304C1.51038 0.418579 0.955017 1.15564 0.955017 2.06162V9.99202C0.955017 10.898 1.51038 11.6351 2.19304 11.6351ZM1.45022 2.06162C1.45022 1.51805 1.78346 1.07579 2.19304 1.07579H8.16854C8.57812 1.07579 8.91135 1.51805 8.91135 2.06162V9.99202C8.91135 10.5356 8.57812 10.9778 8.16854 10.9778H2.19304C1.78346 10.9778 1.45022 10.5356 1.45022 9.99202V2.06162Z" fill="white"/>
<path d="M5.18082 8.98428C6.40956 8.98428 7.40925 7.65753 7.40925 6.02681C7.40925 4.39609 6.40956 3.06934 5.18082 3.06934C3.95209 3.06934 2.95239 4.39609 2.95239 6.02681C2.95239 7.65753 3.95209 8.98428 5.18082 8.98428ZM5.18082 3.72655C6.13655 3.72655 6.91405 4.75842 6.91405 6.02681C6.91405 7.2952 6.13655 8.32707 5.18082 8.32707C4.2251 8.32707 3.4476 7.2952 3.4476 6.02681C3.4476 4.75842 4.2251 3.72655 5.18082 3.72655Z" fill="white"/>
<path d="M7.51618 3.56709C7.92087 3.56709 8.25013 3.13011 8.25013 2.59302C8.25013 2.05593 7.92087 1.61896 7.51618 1.61896C7.11148 1.61896 6.78223 2.05593 6.78223 2.59302C6.78223 3.13011 7.11148 3.56709 7.51618 3.56709ZM7.51618 2.26833C7.65105 2.26833 7.76083 2.41402 7.76083 2.59302C7.76083 2.77202 7.65105 2.91771 7.51618 2.91771C7.3813 2.91771 7.27153 2.77202 7.27153 2.59302C7.27153 2.41402 7.3813 2.26833 7.51618 2.26833Z" fill="white"/>
</svg>
