<svg width="9" height="12" viewBox="0 0 9 12" fill="none" xmlns="http://www.w3.org/2000/svg">
<path d="M1.78648 11.6351H4.54314V7.64795H3.55272V6.33352H4.54314V4.69048C4.54314 3.7845 5.0985 3.04744 5.78115 3.04744H7.01917V4.36187H6.02876C5.75568 4.36187 5.53355 4.65668 5.53355 5.01909V6.33352H6.97449L6.80942 7.64795H5.53355V11.6351H7.76198C8.44463 11.6351 9 10.898 9 9.99202V2.06162C9 1.15564 8.44463 0.418579 7.76198 0.418579H1.78648C1.10383 0.418579 0.548462 1.15564 0.548462 2.06162V9.99202C0.548462 10.898 1.10383 11.6351 1.78648 11.6351ZM1.04367 2.06162C1.04367 1.51805 1.3769 1.07579 1.78648 1.07579H7.76198C8.17156 1.07579 8.50479 1.51805 8.50479 2.06162V9.99202C8.50479 10.5356 8.17156 10.9778 7.76198 10.9778H6.02876V8.30517H7.22893L7.55906 5.67631H6.02876V5.01909H7.51438V2.39023H5.78115C4.82543 2.39023 4.04793 3.42209 4.04793 4.69048V5.67631H3.05751V8.30517H4.04793V10.9778H1.78648C1.3769 10.9778 1.04367 10.5356 1.04367 9.99202V2.06162Z" fill="white"/>
</svg>
