<svg width="9" height="10" viewBox="0 0 9 10" fill="none" xmlns="http://www.w3.org/2000/svg">
<path d="M8.81317 1.31318C8.28153 1.3457 8.29314 1.34305 8.23305 1.34972L8.5479 0.15638C8.5479 0.15638 7.5651 0.636199 7.31594 0.722031C6.6616 -0.0584984 5.68898 -0.0929851 4.99363 0.474206C4.4242 0.938792 4.11857 1.73661 4.22051 2.66912C3.11229 2.46502 2.17855 1.76784 1.44135 0.592556L1.20819 0.220904L1.03397 0.645527C0.813768 1.18208 0.740648 1.79557 0.828018 2.37294C0.863869 2.60981 0.924803 2.83573 1.00921 3.04727L0.80919 2.94441L0.785461 3.38795C0.76141 3.8385 0.874444 4.36444 1.08787 4.79471C1.14797 4.91589 1.22534 5.04896 1.32342 5.18023L1.22006 5.15918L1.34618 5.66741C1.51196 6.33515 1.85628 6.85176 2.30313 7.13895C1.85686 7.39029 1.49635 7.55065 0.903782 7.80935L0.361633 8.04588L0.862386 8.40923C1.05331 8.54777 1.72797 9.01048 2.39456 9.14928C3.87632 9.45769 5.54461 9.20653 6.66773 7.86411C7.61371 6.73341 7.92412 5.12503 7.85964 3.45127C7.8499 3.19788 7.9022 2.95605 8.00691 2.77044C8.21667 2.39879 8.81188 1.31566 8.81317 1.31318ZM7.61094 2.37679C7.43704 2.68495 7.34993 3.07851 7.36553 3.48482C7.43059 5.17313 7.08446 6.48242 6.33668 7.37617C5.46317 8.42027 4.05422 8.83008 2.47123 8.50054C2.18455 8.44089 1.88826 8.30731 1.64305 8.1739C2.13987 7.94704 2.52352 7.74482 3.14311 7.35563L4.00805 6.81231L3.0531 6.73119C2.59568 6.69234 2.21479 6.39813 1.98066 5.92045C2.10498 5.91087 2.22485 5.88417 2.3442 5.84001L3.25499 5.50336L2.3366 5.20487C1.89033 5.05982 1.63595 4.70546 1.50113 4.43367C1.4126 4.25508 1.35476 4.07212 1.32007 3.90345C1.41214 3.93623 1.5195 3.95959 1.69263 3.98235L2.54267 4.09394L1.86918 3.39668C1.3839 2.89435 1.18943 2.13966 1.33199 1.41416C2.8465 3.49894 4.62474 3.34225 4.80373 3.39736C4.76434 2.88947 4.7633 2.88827 4.75299 2.83992C4.52376 1.7645 5.02613 1.21845 5.25271 1.03361C5.72599 0.64758 6.47725 0.589389 6.99761 1.22538C7.11 1.36264 7.26197 1.41664 7.40422 1.36975C7.53189 1.32764 7.63667 1.28306 7.73926 1.23454L7.5257 2.04391L7.79832 2.04416C7.74687 2.13573 7.68516 2.24535 7.61094 2.37679Z" fill="white"/>
</svg>
